<svg width="132" height="40" viewBox="0 0 132 40" fill="none" xmlns="http://www.w3.org/2000/svg">
<path d="M122.771 21.7343H114.783L123.849 8.77148H131.835L122.771 21.7343Z" fill="#76CEDD"/>
<path d="M70.5362 8.29297C64.3308 8.29297 58.9531 13.1188 58.9531 19.0237V39.5165H64.7447V27.9916C66.6057 29.2732 68.6752 29.7653 70.8459 29.7653C76.9486 29.7653 82.1193 24.9395 82.1193 19.0345C82.1193 12.6267 77.2614 8.29297 70.5362 8.29297ZM70.5362 24.6436C67.2266 24.6436 64.7447 22.1801 64.7447 19.0283C64.7447 15.7785 67.2266 13.4146 70.5362 13.4146C73.9486 13.4146 76.3278 15.7785 76.3278 19.0283C76.3278 22.1801 73.9486 24.6436 70.5362 24.6436Z" fill="#00465A"/>
<path d="M95.1525 8.29297C88.9455 8.29297 83.5679 13.1188 83.5679 19.0237C83.5679 25.427 88.1193 29.7545 94.6344 29.7545C97.3232 29.7545 99.7024 28.8685 101.047 27.4888V29.546H106.736V19.0283C106.736 12.6267 101.875 8.29297 95.1525 8.29297ZM95.1525 24.6436C91.8428 24.6436 89.3594 22.1801 89.3594 19.0283C89.3594 15.7785 91.8428 13.4146 95.1525 13.4146C98.5649 13.4146 100.944 15.7785 100.944 19.0283C100.944 22.1801 98.5695 24.6436 95.1525 24.6436Z" fill="#00465A"/>
<path d="M30.8199 8.77148H25.0283V29.6336H30.8199V8.77148Z" fill="#00465A"/>
<path d="M12.1012 8.29336C9.41242 8.29336 7.03326 9.17941 5.79155 10.5575V0H0V19.0287C0 25.4319 4.86104 29.7595 11.5831 29.7595C17.7886 29.7595 23.1677 24.9337 23.1677 19.0287C23.1677 12.6271 18.6164 8.29336 12.1012 8.29336ZM11.5831 24.644C8.27343 24.644 5.79155 22.1805 5.79155 19.0287C5.79155 15.7788 8.27343 13.415 11.5831 13.415C14.997 13.415 17.3762 15.7788 17.3762 19.0287C17.3762 22.1805 14.997 24.644 11.5831 24.644Z" fill="#00465A"/>
<path d="M106.004 8.77148L114.589 28.3935L106.833 39.5182C106.769 39.4492 113.87 39.5182 113.87 39.5182L121.625 28.3935L113.04 8.77148H106.004Z" fill="#00465A"/>
<path d="M44.8863 8.29297C38.6809 8.29297 33.3032 13.1188 33.3032 19.0237C33.3032 25.427 37.8531 29.7545 44.3697 29.7545C47.0585 29.7545 49.5404 28.8685 50.7821 27.4888V29.2624C50.7821 32.6104 48.403 35.172 44.8863 35.172C41.4341 35.172 39.0794 32.8925 38.9951 29.6395H33.5132C33.5976 36.0336 38.1244 39.9993 44.8863 39.9993C51.0918 39.9993 56.4694 35.6641 56.4694 29.2686V19.0283C56.4694 12.6267 51.6099 8.29297 44.8863 8.29297ZM44.8863 24.6436C41.5766 24.6436 39.0948 22.1801 39.0948 19.0283C39.0948 15.7785 41.5766 13.4146 44.8863 13.4146C48.3002 13.4146 50.6779 15.7785 50.6779 19.0283C50.6779 22.1801 48.3002 24.6436 44.8863 24.6436Z" fill="#00465A"/>
</svg>
