<svg width="24" height="24" viewBox="0 0 24 24" fill="none" xmlns="http://www.w3.org/2000/svg">
<mask id="mask0_1510_6058" style="mask-type:alpha" maskUnits="userSpaceOnUse" x="0" y="0" width="24" height="24">
<rect width="24" height="24" fill="#D9D9D9"/>
</mask>
<g mask="url(#mask0_1510_6058)">
<path d="M11.999 16.9992C12.2824 16.9992 12.52 16.9032 12.712 16.7112C12.9034 16.5199 12.999 16.2825 12.999 15.9992V12.9992H16.024C16.3074 12.9992 16.5407 12.9032 16.724 12.7112C16.9074 12.5199 16.999 12.2825 16.999 11.9992C16.999 11.7159 16.903 11.4782 16.711 11.2862C16.5197 11.0949 16.2824 10.9992 15.999 10.9992H12.999V7.97421C12.999 7.69087 12.9034 7.45754 12.712 7.27421C12.52 7.09087 12.2824 6.99921 11.999 6.99921C11.7157 6.99921 11.4784 7.09487 11.287 7.28621C11.095 7.47821 10.999 7.71587 10.999 7.99921V10.9992H7.97402C7.69069 10.9992 7.45736 11.0949 7.27402 11.2862C7.09069 11.4782 6.99902 11.7159 6.99902 11.9992C6.99902 12.2825 7.09469 12.5199 7.28602 12.7112C7.47802 12.9032 7.71569 12.9992 7.99902 12.9992H10.999V16.0242C10.999 16.3075 11.095 16.5409 11.287 16.7242C11.4784 16.9075 11.7157 16.9992 11.999 16.9992ZM11.999 21.9992C10.6157 21.9992 9.31569 21.7365 8.09902 21.2112C6.88236 20.6865 5.82402 19.9742 4.92402 19.0742C4.02402 18.1742 3.31169 17.1159 2.78702 15.8992C2.26169 14.6825 1.99902 13.3825 1.99902 11.9992C1.99902 10.6159 2.26169 9.31587 2.78702 8.09921C3.31169 6.88254 4.02402 5.82421 4.92402 4.92421C5.82402 4.02421 6.88236 3.31154 8.09902 2.78621C9.31569 2.26154 10.6157 1.99921 11.999 1.99921C13.3824 1.99921 14.6824 2.26154 15.899 2.78621C17.1157 3.31154 18.174 4.02421 19.074 4.92421C19.974 5.82421 20.6864 6.88254 21.211 8.09921C21.7364 9.31587 21.999 10.6159 21.999 11.9992C21.999 13.3825 21.7364 14.6825 21.211 15.8992C20.6864 17.1159 19.974 18.1742 19.074 19.0742C18.174 19.9742 17.1157 20.6865 15.899 21.2112C14.6824 21.7365 13.3824 21.9992 11.999 21.9992ZM11.999 19.9992C14.2157 19.9992 16.1034 19.2202 17.662 17.6622C19.22 16.1035 19.999 14.2159 19.999 11.9992C19.999 9.78254 19.22 7.89487 17.662 6.33621C16.1034 4.77821 14.2157 3.99921 11.999 3.99921C9.78236 3.99921 7.89502 4.77821 6.33702 6.33621C4.77836 7.89487 3.99902 9.78254 3.99902 11.9992C3.99902 14.2159 4.77836 16.1035 6.33702 17.6622C7.89502 19.2202 9.78236 19.9992 11.999 19.9992Z" fill="white"/>
</g>
</svg>
