<svg width="20" height="20" viewBox="0 0 20 20" fill="none" xmlns="http://www.w3.org/2000/svg">
<mask id="mask0_5843_8857" style="mask-type:alpha" maskUnits="userSpaceOnUse" x="0" y="0" width="20" height="20">
<rect width="20" height="20" fill="#D9D9D9"/>
</mask>
<g mask="url(#mask0_5843_8857)">
<path d="M18.3332 5.0026V15.0026C18.3332 15.4609 18.1701 15.8534 17.844 16.1801C17.5173 16.5062 17.1248 16.6693 16.6665 16.6693H3.33317C2.87484 16.6693 2.48262 16.5062 2.1565 16.1801C1.82984 15.8534 1.6665 15.4609 1.6665 15.0026V5.0026C1.6665 4.54427 1.82984 4.15205 2.1565 3.82594C2.48262 3.49927 2.87484 3.33594 3.33317 3.33594H16.6665C17.1248 3.33594 17.5173 3.49927 17.844 3.82594C18.1701 4.15205 18.3332 4.54427 18.3332 5.0026ZM3.33317 6.66927H16.6665V5.0026H3.33317V6.66927ZM3.33317 10.0026V15.0026H16.6665V10.0026H3.33317Z" fill="white"/>
</g>
</svg>
